<svg id="Layer_1" data-name="Layer 1" xmlns="http://www.w3.org/2000/svg" width="130.81mm" height="46.02mm" viewBox="0 0 370.79 130.44">
  <title>techno_logo2</title>
  <path d="M77,43.63H61.43v54L47,97.51V43.63H31.43V31.83H77Z" style="fill: #231f20"/>
  <path d="M123.13,43.63H97.63v16.8h24v11.8h-24v19.2l-14.4.14V31.83h39.9Z" style="fill: #231f20"/>
  <path d="M160,44.58c-1.23-2.36-3.48-3.55-6.75-3.55a6.78,6.78,0,0,0-4.45,1.45,9.66,9.66,0,0,0-2.75,4.7,40.14,40.14,0,0,0-1.4,8.5q-.4,5.25-.4,12.85a126.65,126.65,0,0,0,.55,13.1,29,29,0,0,0,1.7,7.75,7.06,7.06,0,0,0,2.9,3.7,8.3,8.3,0,0,0,4.05,1,9.45,9.45,0,0,0,3.55-.65,6,6,0,0,0,2.85-2.6,17,17,0,0,0,1.9-5.5,49.82,49.82,0,0,0,.7-9.35h14.4a64.38,64.38,0,0,1-.9,11,24.94,24.94,0,0,1-3.35,9.1,16.55,16.55,0,0,1-6.9,6.1q-4.45,2.2-11.55,2.2-8.1,0-12.9-2.6a17.51,17.51,0,0,1-7.35-7.5,33,33,0,0,1-3.3-11.7,137.44,137.44,0,0,1-.75-15,137.94,137.94,0,0,1,.75-15,33.19,33.19,0,0,1,3.3-11.75,18.55,18.55,0,0,1,7.35-7.65q4.8-2.74,12.9-2.75c5.13,0,9.19.84,12.15,2.5a17.07,17.07,0,0,1,6.65,6.35,21.88,21.88,0,0,1,2.75,8.3,67.66,67.66,0,0,1,.55,8.35h-14.4Q161.83,48.13,160,44.58Z" style="fill: #231f20"/>
  <path d="M199.43,59.13h16.8V31.83h14.4v71.4h-14.4V71.53h-16.8v31.7H185V59.28Z" style="fill: #231f20"/>
  <path d="M271.63,103.23l-17.6-50h-.2v50h-13.2V31.83h16.6q7.08,19.91,14.17,39.81.15,9.08.21,18.32Q271.65,96.64,271.63,103.23Zm3.07,9.32" style="fill: #231f20"/>
  <path d="M297.28,52.58a33.19,33.19,0,0,1,3.3-11.75,18.55,18.55,0,0,1,7.35-7.65q4.8-2.74,12.9-2.75t12.9,2.75a18.55,18.55,0,0,1,7.35,7.65,33.19,33.19,0,0,1,3.3,11.75,137.94,137.94,0,0,1,.75,15,137.44,137.44,0,0,1-.75,15,33,33,0,0,1-3.3,11.7,17.51,17.51,0,0,1-7.35,7.5q-4.8,2.61-12.9,2.6t-12.9-2.6a17.51,17.51,0,0,1-7.35-7.5,33,33,0,0,1-3.3-11.7,137.44,137.44,0,0,1-.75-15A137.94,137.94,0,0,1,297.28,52.58Zm14,27.2a33.82,33.82,0,0,0,1.4,8.2,9.08,9.08,0,0,0,3,4.6,9.87,9.87,0,0,0,10.3,0,9.08,9.08,0,0,0,3-4.6,33.82,33.82,0,0,0,1.4-8.2q.35-5,.35-12.25t-.35-12.2a34.55,34.55,0,0,0-1.4-8.2,9.15,9.15,0,0,0-3-4.65,9.87,9.87,0,0,0-10.3,0,9.15,9.15,0,0,0-3,4.65,34.55,34.55,0,0,0-1.4,8.2c-.1,1.4-.18,2.92-.23,4.57q-.12,3.45-.12,7.63Q310.93,74.73,311.28,79.78Z" style="fill: #231f20"/>
  <path d="M61.43,100.63v5.23l-14.4,0v-5.59Z" style="fill: #231f20"/>
  <path d="M105.55,91.24h17.58V103h-32c0-3.86-.07-7.73-.1-11.59Z" style="fill: #231f20"/>
  <line x1="185.03" y1="59.28" x2="199.43" y2="59.13" style="fill: #231f20"/>
  <path d="M199.43,31.83V47.46c0,1.89-14.4,2-14.4,0V31.83Z" style="fill: #231f20"/>
  <path d="M185,50.29v-10c0-1.21,14.4-1.29,14.4,0v10Z" style="fill: #231f20"/>
  <path d="M274.7,78.28V31.83h13.2V78.27C287.9,88,274.7,80,274.7,78.28Z" style="fill: #231f20"/>
  <path d="M287.9,56.78v46.45H274.7V56.79C274.7,47.11,287.9,55,287.9,56.78Z" style="fill: #231f20"/>
</svg>
