<svg id="Layer_1" data-name="Layer 1" xmlns="http://www.w3.org/2000/svg" width="206.53mm" height="59.79mm" viewBox="0 0 585.45 169.47">
  <title>techno_logo</title>
  
   <filter id="blurMe">
   <feGaussianBlur stdDeviation="1"/>
   </filter>

     <filter id="noise" x="0%" y="0%" width="100%" height="100%">
        <feTurbulence id="turbulence" baseFrequency="0.04 0.01" result="NOISE" numOctaves="2" />
        <feDisplacementMap in="SourceGraphic" in2="NOISE" scale="3" xChannelSelector="R" yChannelSelector="R"></feDisplacementMap>
    </filter>

      <animate xlink:href="#turbulence" attributeName="baseFrequency" dur="60s" keyTimes="0;0.5;1" values="0.02 0.06;0.04 0.08;0.02 0.03" repeatCount="indefinite"/>


  <g id="letters" filter="url(#noise)" >

  <use href="#letter-t-blur" x="-10"  filter="url(#blurMe)" fill="#DEAA91" > </use>
  <use href="#letter-t-blur" x="10"  filter="url(#blurMe)" fill="#B9BEC8" > </use>

  <g id="letter-t-blur"> 
  <path d="M123.74,58H101.19v54l-20.82-.13V58H57.82V46.2h65.92Z"/>
  <path d="M101.19,115v5.22l-20.82,0V114.6Z"/>
  </g>

  <g id="letter-t" > 
  <path d="M123.74,58H101.19v54l-20.82-.13V58H57.82V46.2h65.92Z" style="fill: #ffffff; stroke: #ffffff"/>
  <path d="M101.19,115v5.22l-20.82,0V114.6Z" style="fill: #ffffff; stroke: #ffffff"/>
  </g>

  <use href="#letter-e-blur" x="-10"  filter="url(#blurMe)" fill="#DEAA91" > </use>
  <use href="#letter-e-blur" x="10" filter="url(#blurMe)"  fill="#B9BEC8" > </use>

  <g id="letter-e-blur">
  <path d="M190.38,58H153.52V74.8h34.69V86.6H153.52v19.2l-20.82.14V46.2h57.68Z"/>
  <path d="M165,105.61h25.41v11.8H144.15L144,105.82Z"/>
  </g>
  
  <g id="letter-e">
  <path d="M190.38,58H153.52V74.8h34.69V86.6H153.52v19.2l-20.82.14V46.2h57.68Z" style="fill: #ffffff; stroke: #ffffff"/>
  <path d="M165,105.61h25.41v11.8H144.15L144,105.82Z" style="fill: #ffffff; stroke: #ffffff"/>
  </g>

  <use href="#letter-c-blur" x="-7"  filter="url(#blurMe)" fill="#DEAA91" > </use>
  <use href="#letter-c-blur" x="10"  filter="url(#blurMe)" fill="#B9BEC8" > </use>

  <path id="letter-c-blur" d="M243.65,59q-2.67-3.54-9.76-3.55a12.86,12.86,0,0,0-6.43,1.45,9.81,9.81,0,0,0-4,4.7,29.06,29.06,0,0,0-2,8.5,119,119,0,0,0-.58,12.85,86.58,86.58,0,0,0,.8,13.1,21.94,21.94,0,0,0,2.45,7.75,8.31,8.31,0,0,0,4.2,3.7,16.39,16.39,0,0,0,5.85,1,19.17,19.17,0,0,0,5.13-.65,8.33,8.33,0,0,0,4.12-2.6,13.94,13.94,0,0,0,2.75-5.5,35.29,35.29,0,0,0,1-9.35H268a45.48,45.48,0,0,1-1.3,11,20.88,20.88,0,0,1-4.85,9.1,23.27,23.27,0,0,1-10,6.1q-6.44,2.2-16.7,2.2-11.7,0-18.64-2.6a22.9,22.9,0,0,1-10.63-7.5,25.78,25.78,0,0,1-4.77-11.7,95.92,95.92,0,0,1-1.08-15,96.27,96.27,0,0,1,1.08-15,25.93,25.93,0,0,1,4.77-11.75,24,24,0,0,1,10.63-7.65q6.93-2.74,18.64-2.75,11.13,0,17.57,2.5t9.61,6.35a18,18,0,0,1,4,8.3,48.59,48.59,0,0,1,.79,8.35H246.32Q246.32,62.5,243.65,59Z"/>
  <path id="letter-c" d="M243.65,59q-2.67-3.54-9.76-3.55a12.86,12.86,0,0,0-6.43,1.45,9.81,9.81,0,0,0-4,4.7,29.06,29.06,0,0,0-2,8.5,119,119,0,0,0-.58,12.85,86.58,86.58,0,0,0,.8,13.1,21.94,21.94,0,0,0,2.45,7.75,8.31,8.31,0,0,0,4.2,3.7,16.39,16.39,0,0,0,5.85,1,19.17,19.17,0,0,0,5.13-.65,8.33,8.33,0,0,0,4.12-2.6,13.94,13.94,0,0,0,2.75-5.5,35.29,35.29,0,0,0,1-9.35H268a45.48,45.48,0,0,1-1.3,11,20.88,20.88,0,0,1-4.85,9.1,23.27,23.27,0,0,1-10,6.1q-6.44,2.2-16.7,2.2-11.7,0-18.64-2.6a22.9,22.9,0,0,1-10.63-7.5,25.78,25.78,0,0,1-4.77-11.7,95.92,95.92,0,0,1-1.08-15,96.27,96.27,0,0,1,1.08-15,25.93,25.93,0,0,1,4.77-11.75,24,24,0,0,1,10.63-7.65q6.93-2.74,18.64-2.75,11.13,0,17.57,2.5t9.61,6.35a18,18,0,0,1,4,8.3,48.59,48.59,0,0,1,.79,8.35H246.32Q246.32,62.5,243.65,59Z" style="fill: #ffffff; stroke: #ffffff"/>
  
  <use href="#letter-h-blur" x="-5"  filter="url(#blurMe)" fill="#DEAA91" > </use>
  <use href="#letter-h-blur" x="5" filter="url(#blurMe)"  fill="#B9BEC8" > </use>
  
  <g id="letter-h-blur">
  <path d="M300.68,46.2V61.83c0,1.88-20.82,2-20.82,0V46.2Z"/>
  <path d="M279.86,64.66v-10c0-1.21,20.82-1.3,20.82,0v10Z"/>
  <path d="M300.68,73.5H325V46.2h20.82v71.4H325V85.9H300.68v31.7H279.86v-44Z"/>
  </g>

  <g id="letter-h">
  <path d="M300.68,46.2V61.83c0,1.88-20.82,2-20.82,0V46.2Z" style="fill: #ffffff; stroke: #ffffff"/>
  <path d="M279.86,64.66v-10c0-1.21,20.82-1.3,20.82,0v10Z" style="fill: #ffffff; stroke: #ffffff"/>
  <path d="M300.68,73.5H325V46.2h20.82v71.4H325V85.9H300.68v31.7H279.86v-44Z" style="fill: #ffffff; stroke: #ffffff"/>
  </g>

  <use href="#letter-n-blur" x="-5"  filter="url(#blurMe)" fill="#DEAA91" > </use>
  <use href="#letter-n-blur" x="5" filter="url(#blurMe)"  fill="#B9BEC8" > </use>

  <g id="letter-n-blur">
  <path d="M405.05,117.6l-25.45-50h-.28v50H360.23V46.2h24Q394.46,66.1,404.71,86q.23,9.08.31,18.32Q405.07,111,405.05,117.6Zm4.43,9.32"/>
  <path d="M409.48,92.65V46.2h19.08V92.64C428.56,102.33,409.48,94.4,409.48,92.65Z"/>
  <path d="M428.56,71.15V117.6H409.48V71.16C409.48,61.48,428.56,69.4,428.56,71.15Z"/>
  </g>

  <g id="letter-n">
  <path d="M405.05,117.6l-25.45-50h-.28v50H360.23V46.2h24Q394.46,66.1,404.71,86q.23,9.08.31,18.32Q405.07,111,405.05,117.6Zm4.43,9.32" style="fill: #ffffff; stroke: #ffffff"/>
  <path d="M409.48,92.65V46.2h19.08V92.64C428.56,102.33,409.48,94.4,409.48,92.65Z" style="fill: #ffffff; stroke: #ffffff"/>
  <path d="M428.56,71.15V117.6H409.48V71.16C409.48,61.48,428.56,69.4,428.56,71.15Z" style="fill: #ffffff; stroke: #ffffff"/>  </g>

  <use href="#letter-o-blur" x="-7"  filter="url(#blurMe)" fill="#DEAA91" > </use>
  <use href="#letter-o-blur" x="10" filter="url(#blurMe)"  fill="#B9BEC8" > </use>
  
  <path id="letter-o-blur" d="M442.12,67a26.15,26.15,0,0,1,4.77-11.75,24,24,0,0,1,10.63-7.65q6.93-2.74,18.65-2.75t18.65,2.75a24,24,0,0,1,10.62,7.65A25.93,25.93,0,0,1,510.21,67a96.27,96.27,0,0,1,1.08,15,95.92,95.92,0,0,1-1.08,15,25.78,25.78,0,0,1-4.77,11.7,22.92,22.92,0,0,1-10.62,7.5q-6.94,2.59-18.65,2.6t-18.65-2.6a22.9,22.9,0,0,1-10.63-7.5,26,26,0,0,1-4.77-11.7,95.92,95.92,0,0,1-1.08-15A96.27,96.27,0,0,1,442.12,67Zm20.24,27.2a24.61,24.61,0,0,0,2,8.2,9.66,9.66,0,0,0,4.33,4.6,19.84,19.84,0,0,0,14.89,0,9.68,9.68,0,0,0,4.34-4.6,24.87,24.87,0,0,0,2-8.2q.51-5,.51-12.25T490,69.7a25.4,25.4,0,0,0-2-8.2,9.71,9.71,0,0,0-4.34-4.65,19.84,19.84,0,0,0-14.89,0,9.69,9.69,0,0,0-4.33,4.65,25.13,25.13,0,0,0-2,8.2c-.14,1.4-.25,2.92-.33,4.57-.12,2.3-.17,4.84-.17,7.63Q461.86,89.1,462.36,94.15Z"/>
  <path id="letter-o" d="M442.12,67a26.15,26.15,0,0,1,4.77-11.75,24,24,0,0,1,10.63-7.65q6.93-2.74,18.65-2.75t18.65,2.75a24,24,0,0,1,10.62,7.65A25.93,25.93,0,0,1,510.21,67a96.27,96.27,0,0,1,1.08,15,95.92,95.92,0,0,1-1.08,15,25.78,25.78,0,0,1-4.77,11.7,22.92,22.92,0,0,1-10.62,7.5q-6.94,2.59-18.65,2.6t-18.65-2.6a22.9,22.9,0,0,1-10.63-7.5,26,26,0,0,1-4.77-11.7,95.92,95.92,0,0,1-1.08-15A96.27,96.27,0,0,1,442.12,67Zm20.24,27.2a24.61,24.61,0,0,0,2,8.2,9.66,9.66,0,0,0,4.33,4.6,19.84,19.84,0,0,0,14.89,0,9.68,9.68,0,0,0,4.34-4.6,24.87,24.87,0,0,0,2-8.2q.51-5,.51-12.25T490,69.7a25.4,25.4,0,0,0-2-8.2,9.71,9.71,0,0,0-4.34-4.65,19.84,19.84,0,0,0-14.89,0,9.69,9.69,0,0,0-4.33,4.65,25.13,25.13,0,0,0-2,8.2c-.14,1.4-.25,2.92-.33,4.57-.12,2.3-.17,4.84-.17,7.63Q461.86,89.1,462.36,94.15Z" style="fill: #ffffff; stroke: #ffffff"/>

</g>

</svg>

